<?xml version="1.0" encoding="utf-8"?>
<svg viewBox="0 0 100 100">
  <rect x="0" y="0" width="100" height="100" rx="10" fill="#000" />
  <path d="M 27.459 33.451 L 31.565 39.937 L 12.257 51.212 L 31.565 62.279 L 27.311 68.973 L 4.135 54.574 L 4.135 47.91 Z" fill="#fff" />
  <path d="M 56.974 24.764 Q 60.425 24.764 63.073 25.315 Q 65.72 25.865 67.803 26.758 L 65.215 32.886 Q 63.578 32.261 61.853 31.979 Q 60.127 31.696 58.432 31.696 Q 55.635 31.696 54.43 32.708 Q 53.225 33.719 53.225 36.069 L 53.225 40.294 L 63.519 40.294 L 62.478 46.809 L 53.225 46.809 L 53.225 69.895 L 43.884 69.895 L 43.884 46.809 L 37.25 46.809 L 37.25 40.294 L 43.884 40.294 L 43.884 35.712 Q 43.884 32.589 45.371 30.119 Q 46.859 27.65 49.774 26.207 Q 52.69 24.764 56.974 24.764 Z" fill="#fff" />
  <path d="M 73.696 33.451 L 96.961 47.85 L 96.961 54.574 L 73.785 68.973 L 69.531 62.577 L 88.869 51.212 L 69.531 40.205 Z" fill="#fff" />
</svg>
